<svg width="25" height="24" fill="none" xmlns="http://www.w3.org/2000/svg"><g clip-path="url(#clip0_261_7379)"><path d="M9.5 20.25a1.5 1.5 0 11-3 0 1.5 1.5 0 013 0zm8.25-1.5a1.5 1.5 0 100 3 1.5 1.5 0 000-3zm4.467-11.78l-2.674 8.692a2.24 2.24 0 01-2.151 1.588h-9.01a2.26 2.26 0 01-2.163-1.632L2.827 3.75H1.25a.75.75 0 010-1.5h1.577A1.507 1.507 0 014.27 3.337L5.03 6H21.5a.75.75 0 01.717.97zm-1.732.53H5.458l2.203 7.706a.75.75 0 00.72.544h9.01a.75.75 0 00.718-.53l2.376-7.72z" fill="#fff"/></g><defs><clipPath id="clip0_261_7379"><path fill="#fff" transform="translate(.5)" d="M0 0h24v24H0z"/></clipPath></defs></svg>