<svg width="146" height="128" fill="none" xmlns="http://www.w3.org/2000/svg"><g clip-path="url(#clip0_2270_11330)"><path d="M47.13 27.129h77.46c6.541 0 11.121 6.447 8.986 12.638l-6.971 38.238a9.533 9.533 0 01-9 6.434H50.649c-5.144 0-9.147-4.469-8.596-9.583l5.077-47.727z" fill="#19B28D"/><path d="M122.764 89.19c-1.827 6.057-7.401 10.216-13.727 10.216l-63.8.04a20.858 20.858 0 01-15.42-6.85 20.893 20.893 0 01-5.278-16.044l5.13-51.55c.538-5.424-3.237-10.458-8.582-11.454l-16.01-2.961A5.12 5.12 0 01.98 4.624 5.124 5.124 0 016.943.506l16.01 2.96c10.546 1.954 17.987 11.86 16.912 22.56l-5.09 51.2c-.283 2.894.456 5.855 2.31 8.102 2.055 2.49 4.97 3.863 8.153 3.863h77.527zm-71.052 31.127c3.881-4.23 3.606-10.812-.615-14.701-4.22-3.89-10.79-3.614-14.67.616-3.882 4.229-3.607 10.811.614 14.701a10.368 10.368 0 0014.67-.616zm48.453.326c4.055-4.063 4.055-10.65 0-14.713a10.367 10.367 0 00-14.683 0c-4.054 4.063-4.054 10.65 0 14.713a10.367 10.367 0 0014.683 0z" fill="#008E7D"/><path d="M104.456 70.522l-7.979-7.995a15.532 15.532 0 00-2.082-21.091A15.415 15.415 0 0083.691 37.6a15.493 15.493 0 00-10.437 4.536 15.53 15.53 0 00-4.526 10.458 15.464 15.464 0 003.828 10.727A15.479 15.479 0 0082.67 68.53c3.908.39 7.817-.727 10.933-3.123l7.978 7.995c.188.189.417.337.659.444.241.108.51.148.779.148a1.959 1.959 0 001.423-.592 2.19 2.19 0 00.444-.66 1.91 1.91 0 00.147-.767c0-.269-.053-.524-.147-.78a1.862 1.862 0 00-.43-.673zM72.811 53.105c0-2.26.672-4.468 1.92-6.352a11.35 11.35 0 015.118-4.213 11.398 11.398 0 0112.438 2.49 11.456 11.456 0 012.485 12.463 11.363 11.363 0 01-4.205 5.128 11.44 11.44 0 01-6.34 1.925 11.451 11.451 0 01-8.072-3.352 11.5 11.5 0 01-3.344-8.089z" fill="#8CD9C6"/></g><defs><clipPath id="clip0_2270_11330"><path fill="#fff" d="M0 0h146v128H0z"/></clipPath></defs></svg>