<svg width="144" height="51" fill="none" xmlns="http://www.w3.org/2000/svg"><g clip-path="url(#clip0_261_6831)"><path d="M22.5 45l-6-21-6 27 12-6zM54 16.5L46.5 6l-3 8.99L54 16.5z" fill="#000"/><path d="M40.5 24L33 13.09 46.5 6l-6 18zM21.214 40.498L16.5 24l24 .002-19.286 16.496z" fill="#5A5A5A"/><path d="M16.5 24h24L24 0l-7.5 24z" fill="#000"/><path d="M24 0l-7.5 24L0 0h24z" fill="#5A5A5A"/><path d="M137.686 40.518v-7.423h-2.664v-3.077h9v3.077h-2.663v7.423h-3.673z" fill="#000"/><path fill-rule="evenodd" clip-rule="evenodd" d="M128.35 40.902c2.509 0 4.652-1.477 5.513-3.56h-3.442c-.463.666-1.143 1.087-1.9 1.087-1.171 0-2.156-1.004-2.443-2.367h8.188v-.425c0-.06 0-.12-.002-.18.002-.05.002-.1.002-.15 0-3.09-2.648-5.596-5.916-5.596-3.267 0-5.916 2.506-5.916 5.596 0 3.09 2.649 5.595 5.916 5.595zm-2.068-7.14h4.477c-.423-1.015-1.267-1.707-2.238-1.707-.972 0-1.816.692-2.239 1.707z" fill="#000"/><path d="M114.845 30h-3.826v10.506h3.826V30zm0 8.687l1.199-1.274 2.505 3.087 4.475.012-4.488-5.746L123.024 30h-4.419l-3.76 3.89v4.797z" fill="#000"/><path fill-rule="evenodd" clip-rule="evenodd" d="M101.319 40.109c.775.409 1.659.64 2.596.64a5.59 5.59 0 005.585-5.595 5.59 5.59 0 00-5.585-5.595c-.937 0-1.821.231-2.596.64v-.452h-3.69v15.265h3.69v-4.903zm.051-4.955c0 1.32 1.068 2.39 2.385 2.39a2.387 2.387 0 002.385-2.39c0-1.32-1.068-2.39-2.385-2.39a2.387 2.387 0 00-2.385 2.39zm-9.189 4.955a5.547 5.547 0 01-2.596.64A5.59 5.59 0 0184 35.154a5.59 5.59 0 015.585-5.595c.937 0 1.82.231 2.596.64v-.452h3.69v10.83h-3.69v-.468zm0-4.955c0 1.32-1.067 2.39-2.385 2.39a2.387 2.387 0 01-2.385-2.39c0-1.32 1.068-2.39 2.385-2.39a2.387 2.387 0 012.385 2.39z" fill="#000"/><path d="M78.409 23.997H82.5V40.5h-4.091v-9.02l-4.157 7.533-.002-.005-.003.005-4.156-7.534V40.5H66V24h4.091l4.159 7.538L78.409 24v-.003zM140.257 6v10.503h-3.76V9.078h-2.678L133.82 12c0 1.145-.219 2.705-1.191 3.613-.972.907-2.828.897-4.379.891l.007-3.005c.528.004 1.274.003 1.631-.42.358-.425.32-2.116.32-2.609L130.2 6h10.057z" fill="#000"/><path fill-rule="evenodd" clip-rule="evenodd" d="M123.06 16.07a5.553 5.553 0 01-2.597.64 5.59 5.59 0 01-5.584-5.595 5.59 5.59 0 015.584-5.595c.938 0 1.821.23 2.597.64v-.452h3.69v10.83h-3.69v-.468zm0-4.953a2.387 2.387 0 01-2.385 2.387 2.387 2.387 0 01-2.385-2.39 2.387 2.387 0 012.385-2.389 2.387 2.387 0 012.385 2.387v.005z" fill="#000"/><path d="M103.475 21l3.353-6.435L102 6h4.157l2.66 5.081L111.41 6h4.09l-8.024 15h-4.001zm-8.897-4.5V9.077h-2.663V6h9v3.077h-2.663V16.5h-3.674zM79.5 6.008h3.53v5.398l3.453-5.398H90V16.5h-3.53v-5.54l-3.43 5.54H79.5V6.008zm-6.825 5.025h-2.58V16.5H66V0h6.532c1.373 0 2.793.272 4 1.484C77.763 2.721 78 4.106 78 5.492c0 1.31-.166 2.845-1.397 4.106-1.23 1.262-2.698 1.435-3.928 1.435zm-2.58-7.57V7.57h1.373c.425 0 1.23-.05 1.727-.52.497-.445.521-1.113.521-1.509 0-.445-.047-1.039-.473-1.484-.474-.52-1.231-.594-1.752-.594h-1.396z" fill="#000"/></g><defs><clipPath id="clip0_261_6831"><path fill="#fff" d="M0 0h144v51H0z"/></clipPath></defs></svg>