<svg width="92" height="34" fill="none" xmlns="http://www.w3.org/2000/svg"><g clip-path="url(#clip0_270_4977)"><path d="M14.375 30L10.54 16 6.708 34l7.667-4zM34.5 11l-4.79-7-1.917 5.994L34.5 11z" fill="#14424D"/><path d="M25.874 16l-4.791-7.273L29.708 4l-3.834 12zM13.553 26.998L10.543 16l15.333.001-12.322 10.997z" fill="#326964"/><path d="M10.542 16h15.333L15.334 0l-4.792 16z" fill="#14424D"/><path d="M15.333 0l-4.791 16L0 0h15.333z" fill="#326964"/><path d="M87.966 27.012v-4.949h-1.701v-2.051h5.75v2.051h-1.702v4.949h-2.347z" fill="#14424D"/><path fill-rule="evenodd" clip-rule="evenodd" d="M82.002 27.268a3.78 3.78 0 003.522-2.374h-2.199c-.296.445-.73.725-1.214.725-.748 0-1.377-.67-1.56-1.578h5.231v-.284l-.001-.12.001-.1c0-2.06-1.692-3.73-3.78-3.73-2.087 0-3.78 1.67-3.78 3.73s1.693 3.73 3.78 3.73zm-1.32-4.76h2.86c-.27-.677-.81-1.139-1.43-1.139-.622 0-1.16.462-1.43 1.139z" fill="#14424D"/><path d="M73.373 20H70.93v7.004h2.444V20z" fill="#14424D"/><path d="M73.373 25.791l.767-.85 1.6 2.06 2.86.007-2.868-3.83L78.599 20h-2.824l-2.402 2.593v3.198z" fill="#14424D"/><path fill-rule="evenodd" clip-rule="evenodd" d="M64.732 26.74c.495.272 1.06.426 1.659.426 1.97 0 3.568-1.67 3.568-3.73s-1.598-3.73-3.568-3.73a3.43 3.43 0 00-1.66.427v-.302h-2.357v10.177h2.358v-3.269zm.032-3.304c0 .88.683 1.593 1.524 1.593.842 0 1.524-.713 1.524-1.593s-.682-1.593-1.524-1.593c-.841 0-1.523.713-1.523 1.593zm-5.87 3.304a3.428 3.428 0 01-1.66.426c-1.97 0-3.567-1.67-3.567-3.73s1.597-3.73 3.568-3.73a3.43 3.43 0 011.659.427v-.302h2.357v7.22h-2.357v-.312zm0-3.304c0 .88-.682 1.593-1.524 1.593-.841 0-1.524-.713-1.524-1.593s.683-1.593 1.524-1.593c.842 0 1.524.713 1.524 1.593z" fill="#14424D"/><path fill="#14424D" d="M50.095 16.007h2.614V27h-2.614z"/><path d="M42.17 16.007h-.003V27h2.614l-.002-6.04-2.609-4.953z" fill="#326964"/><path d="M45.28 16.943l-.5-.943h-2.613l5.27 10.008v-.003l.002.003 1.31-2.476-3.47-6.589z" fill="#14424D"/><path d="M48.748 23.533L52.706 16h-2.612l-2.66 5.032 1.314 2.5z" fill="#326964"/><path d="M89.609 4v7.002h-2.402v-4.95h-1.712V8c0 .764-.14 1.804-.76 2.409-.62.605-1.807.598-2.797.594L81.942 9c.337.002.814.002 1.042-.28.229-.284.205-1.41.205-1.74L83.184 4h6.425z" fill="#14424D"/><path fill-rule="evenodd" clip-rule="evenodd" d="M78.622 10.713a3.43 3.43 0 01-1.659.427c-1.97 0-3.567-1.67-3.567-3.73s1.597-3.73 3.567-3.73a3.43 3.43 0 011.66.427v-.302h2.357v7.22h-2.358v-.312zm0-3.302c0 .88-.682 1.592-1.523 1.592-.842 0-1.524-.714-1.524-1.593 0-.88.682-1.593 1.524-1.593.84 0 1.522.712 1.523 1.59v.004z" fill="#14424D"/><path d="M66.11 14l2.141-4.29L65.167 4h2.656l1.7 3.388L71.178 4h2.613l-5.127 10H66.11zm-5.685-3V6.051h-1.701V4h5.75v2.051h-1.702V11h-2.347zm-9.633-6.995h2.255v3.6l2.206-3.6H57.5V11h-2.255V7.307L53.053 11h-2.261V4.005zM42.167 0h2.623l-.003 2.309h-.004v2.737h.001l-.003 2.312-2.614-3.784V0z" fill="#14424D"/><path d="M42.167 3.574l2.614 3.784h.002V11h-2.616V3.574zM48.896.99c.192.2.501.673.531.73l-.001.001-2.344 1.677c-.025-.238-.096-.484-.288-.693-.302-.347-.786-.396-1.119-.396h-.888L44.79 0h1.55c.878 0 1.785.181 2.556.99z" fill="#326964"/><path d="M49.427 1.72c.33.623.407 1.282.407 1.941 0 .866-.104 1.878-.87 2.714l-1.882-2.977 2.345-1.678z" fill="#14424D"/><path d="M47.082 3.402c.012.103.015.202.015.292 0 .264-.016.71-.333 1.006-.318.313-.832.346-1.104.346h-.876l-.003 2.312h.002v-.003h1.648c.787 0 1.724-.115 2.51-.956l.022-.024-1.878-2.973h-.003z" fill="#326964"/></g><defs><clipPath id="clip0_270_4977"><path fill="#fff" d="M0 0h92v34H0z"/></clipPath></defs></svg>