<svg width="21" height="20" fill="none" xmlns="http://www.w3.org/2000/svg"><g clip-path="url(#clip0_261_7231)"><path d="M15.25 9.063a.938.938 0 11-1.875 0 .938.938 0 011.875 0zM12.125 5H9a.625.625 0 000 1.25h3.125a.625.625 0 100-1.25zm7.5 3.75v2.5a1.875 1.875 0 01-1.875 1.875h-.184l-1.267 3.545a1.25 1.25 0 01-1.177.83h-.994a1.25 1.25 0 01-1.177-.83l-.15-.42H8.324l-.15.42a1.25 1.25 0 01-1.177.83h-.994a1.25 1.25 0 01-1.177-.83l-.982-2.747a6.85 6.85 0 01-1.675-3.78A1.25 1.25 0 001.5 11.25a.625.625 0 11-1.25 0 2.5 2.5 0 011.897-2.422A6.884 6.884 0 019 2.5h8.125a.625.625 0 110 1.25h-1.671a6.87 6.87 0 012.455 3.125 1.875 1.875 0 011.716 1.875zm-1.25 0a.625.625 0 00-.625-.625h-.286a.625.625 0 01-.597-.438A5.617 5.617 0 0011.5 3.75H9a5.625 5.625 0 00-4.148 9.425c.057.061.1.133.128.212l1.023 2.863h.994l.298-.835A.625.625 0 017.884 15h5.357a.626.626 0 01.589.415l.298.835h.994l1.415-3.96a.625.625 0 01.588-.415h.625a.624.624 0 00.625-.625v-2.5z" fill="#fff"/></g><defs><clipPath id="clip0_261_7231"><path fill="#fff" transform="translate(.25)" d="M0 0h20v20H0z"/></clipPath></defs></svg>