<svg width="25" height="24" fill="none" xmlns="http://www.w3.org/2000/svg"><path d="M22.25 9c0-.07-.01-.14-.028-.206l-1.345-4.707A1.507 1.507 0 0019.437 3H5.563a1.507 1.507 0 00-1.439 1.088L2.78 8.794A.74.74 0 002.75 9v1.5a3.75 3.75 0 001.5 3v6a1.5 1.5 0 001.5 1.5h13.5a1.5 1.5 0 001.5-1.5v-6a3.75 3.75 0 001.5-3V9zM5.562 4.5h13.875l1.071 3.75H4.495L5.562 4.5zm4.688 5.25h4.5v.75a2.25 2.25 0 01-4.5 0v-.75zm-1.5 0v.75a2.25 2.25 0 01-4.5 0v-.75h4.5zm10.5 9.75H5.75v-5.325A3.75 3.75 0 009.5 12.75a3.75 3.75 0 006 0 3.75 3.75 0 003.75 1.425V19.5zm-.75-6.75a2.25 2.25 0 01-2.25-2.25v-.75h4.5v.75a2.25 2.25 0 01-2.25 2.25z" fill="#1A1E1E"/></svg>