<svg width="28" height="28" fill="none" xmlns="http://www.w3.org/2000/svg"><path fill-rule="evenodd" clip-rule="evenodd" d="M3.053 13.789c5.83-2.54 9.718-4.215 11.663-5.024 5.554-2.31 6.709-2.712 7.46-2.725.166-.003.536.038.776.233.355.288.357.914.318 1.329-.301 3.162-1.604 10.837-2.266 14.379-.28 1.498-.832 2.001-1.367 2.05-1.161.107-2.043-.767-3.168-1.505-1.76-1.154-2.755-1.872-4.464-2.998-1.974-1.301-.694-2.016.431-3.185.295-.306 5.412-4.96 5.511-5.383.012-.053.024-.25-.093-.354-.117-.103-.29-.068-.414-.04-.177.04-2.989 1.9-8.436 5.576-.798.548-1.521.815-2.169.802-.714-.016-2.088-.404-3.109-.736-1.252-.407-2.248-.623-2.161-1.314.045-.36.54-.729 1.488-1.105z" fill="#fff"/></svg>