<svg width="28" height="28" fill="none" xmlns="http://www.w3.org/2000/svg"><path d="M25.175 7.997c.163-.542 0-.94-.772-.94h-2.559c-.65 0-.948.344-1.111.722 0 0-1.301 3.172-3.145 5.23-.595.598-.867.787-1.19.787-.163 0-.399-.19-.399-.732V7.997c0-.65-.188-.94-.73-.94h-4.02c-.406 0-.651.301-.651.588 0 .616.921.758 1.016 2.495v3.765c0 .825-.148.976-.475.976-.867 0-2.976-3.184-4.228-6.829-.244-.708-.49-.994-1.143-.994H3.21c-.731 0-.877.344-.877.722 0 .68.867 4.04 4.038 8.483 2.114 3.035 5.09 4.68 7.801 4.68 1.625 0 1.826-.365 1.826-.995v-2.294c0-.73.155-.877.67-.877.378 0 1.029.191 2.547 1.653 1.733 1.733 2.02 2.512 2.994 2.512h2.558c.73 0 1.095-.366.885-1.087-.23-.717-1.058-1.761-2.157-2.997-.597-.704-1.49-1.463-1.762-1.842-.379-.489-.269-.704 0-1.139.002.002 3.118-4.387 3.442-5.88z" fill="#fff"/></svg>